<svg xmlns="http://www.w3.org/2000/svg" xmlns:xlink="http://www.w3.org/1999/xlink" width="500" zoomAndPan="magnify" viewBox="0 0 375 374.999991" height="500" preserveAspectRatio="xMidYMid meet" version="1.0"><defs><g/><clipPath id="cb3514299f"><path d="M 65 151.625 L 130 151.625 L 130 219.875 L 65 219.875 Z M 65 151.625 " clip-rule="nonzero"/></clipPath><clipPath id="5aa43a6eda"><path d="M 79.222656 165.210938 L 115.972656 165.210938 L 115.972656 199.710938 L 79.222656 199.710938 Z M 79.222656 165.210938 " clip-rule="nonzero"/></clipPath></defs><rect x="-37.5" width="450" fill="#ffffff" y="-37.499999" height="449.999989" fill-opacity="1"/><rect x="-37.5" width="450" fill="#000000" y="-37.499999" height="449.999989" fill-opacity="1"/><g clip-path="url(#cb3514299f)"><path fill="#ceaa5b" d="M 97.597656 151.625 C 86.515625 151.902344 75.570312 154.863281 65.75 159.976562 C 66.832031 171.203125 70.285156 182.164062 76.140625 191.804688 C 77.175781 193.527344 78.289062 195.207031 79.472656 196.835938 C 77.253906 193.289062 75.453125 189.484375 74.144531 185.503906 C 71.816406 178.496094 70.847656 171.011719 71.222656 163.640625 C 79.054688 158.960938 88 156.074219 97.074219 155.078125 C 108.035156 153.871094 119.371094 155.425781 129.507812 159.777344 C 119.660156 154.707031 108.679688 151.835938 97.597656 151.625 Z M 129.507812 159.777344 C 124.726562 158.230469 119.839844 157.101562 114.894531 156.445312 C 100.019531 154.429688 84.71875 157.101562 71.222656 163.640625 C 79.472656 159.765625 88.507812 157.597656 97.617188 157.324219 C 106.726562 157.535156 115.777344 159.644531 124.046875 163.46875 C 125.769531 175.03125 123.804688 187.160156 118.488281 197.578125 C 116.339844 201.886719 113.574219 205.933594 110.386719 209.535156 C 106.75 213.648438 102.511719 217.242188 97.835938 220.105469 C 97.992188 220.019531 99.285156 219.300781 99.886719 218.960938 L 100.84375 218.398438 C 103.316406 216.910156 105.691406 215.257812 107.9375 213.441406 C 123.988281 200.578125 131.398438 180.023438 129.507812 159.777344 Z M 121.269531 185.351562 C 117.617188 196.703125 109.988281 206.664062 100.042969 213.230469 C 99.328125 213.707031 98.554688 214.199219 97.804688 214.652344 C 88.539062 209.3125 80.71875 201.523438 75.171875 192.390625 C 69.269531 182.683594 65.890625 171.332031 65.75 159.976562 C 63.964844 180.226562 71.53125 200.757812 87.664062 213.503906 C 89.914062 215.308594 92.296875 216.949219 94.78125 218.417969 L 95.746094 218.972656 C 96.390625 219.332031 97.820312 220.113281 97.820312 220.113281 C 100.019531 218.480469 102.128906 216.746094 104.117188 214.886719 C 108.582031 210.714844 112.449219 205.90625 115.554688 200.648438 C 122.125 189.507812 124.917969 176.335938 124.046875 163.46875 C 124.472656 170.835938 123.550781 178.328125 121.269531 185.351562 Z M 121.269531 185.351562 " fill-opacity="1" fill-rule="nonzero"/></g><g clip-path="url(#5aa43a6eda)"><path fill="#ceaa5b" d="M 97.671875 184.789062 L 79.222656 165.210938 L 79.222656 169.457031 C 79.652344 196.457031 88.359375 199.96875 88.359375 199.96875 L 88.359375 186.3125 L 97.648438 193.839844 L 106.988281 186.3125 L 106.988281 199.957031 C 106.988281 199.957031 115.457031 199.027344 116.125 172.25 L 116.125 165.210938 Z M 97.671875 184.789062 " fill-opacity="1" fill-rule="nonzero"/></g><g fill="#ceaa5b" fill-opacity="1"><g transform="translate(137.38854, 193.109313)"><g><path d="M 10.15625 -11.875 C 9.789062 -12.738281 9.351562 -13.953125 8.84375 -15.515625 C 8.332031 -17.078125 7.90625 -18.664062 7.5625 -20.28125 L 7.515625 -20.28125 C 7.585938 -18.019531 7.625 -15.960938 7.625 -14.109375 L 7.625 -12.84375 L 7.59375 -6.109375 C 7.59375 -4.566406 7.53125 -3.445312 7.40625 -2.75 C 8.226562 -2.820312 9.171875 -2.859375 10.234375 -2.859375 L 10.234375 0 L 1.75 0 L 1.75 -2.453125 C 2.414062 -2.484375 2.921875 -2.566406 3.265625 -2.703125 C 3.617188 -2.835938 3.894531 -3.128906 4.09375 -3.578125 C 4.289062 -4.023438 4.390625 -4.726562 4.390625 -5.6875 L 4.609375 -19.953125 C 4.660156 -21.765625 4.710938 -22.878906 4.765625 -23.296875 L 1.96875 -23.1875 L 1.96875 -26.046875 L 10.203125 -26.046875 L 15.8125 -11.65625 C 16.1875 -10.6875 16.582031 -9.617188 17 -8.453125 C 17.425781 -7.285156 17.726562 -6.390625 17.90625 -5.765625 L 17.9375 -5.765625 C 18.039062 -6.015625 18.316406 -6.785156 18.765625 -8.078125 C 19.109375 -9.097656 19.414062 -9.96875 19.6875 -10.6875 L 25.453125 -26.046875 L 34.0625 -26.046875 L 34.0625 -23.59375 C 33.382812 -23.570312 32.859375 -23.492188 32.484375 -23.359375 C 32.117188 -23.222656 31.835938 -22.929688 31.640625 -22.484375 C 31.441406 -22.035156 31.351562 -21.328125 31.375 -20.359375 L 31.9375 -6.109375 C 32.007812 -4.835938 31.957031 -3.71875 31.78125 -2.75 C 32.601562 -2.820312 33.546875 -2.859375 34.609375 -2.859375 L 34.609375 0 L 24.265625 0 L 24.265625 -2.453125 C 24.929688 -2.484375 25.441406 -2.566406 25.796875 -2.703125 C 26.160156 -2.835938 26.441406 -3.128906 26.640625 -3.578125 C 26.847656 -4.023438 26.9375 -4.726562 26.90625 -5.6875 L 26.609375 -13.578125 L 26.53125 -15 C 26.40625 -17.40625 26.332031 -19.082031 26.3125 -20.03125 L 26.28125 -20.03125 L 18.640625 0.375 L 15.1875 0.375 Z M 10.15625 -11.875 "/></g></g></g><g fill="#ceaa5b" fill-opacity="1"><g transform="translate(173.565108, 193.109313)"><g><path d="M 14.25 0.59375 C 11.269531 0.59375 8.8125 -0.0625 6.875 -1.375 C 4.945312 -2.6875 3.535156 -4.375 2.640625 -6.4375 C 1.742188 -8.5 1.296875 -10.695312 1.296875 -13.03125 C 1.296875 -15.238281 1.789062 -17.382812 2.78125 -19.46875 C 3.78125 -21.550781 5.265625 -23.269531 7.234375 -24.625 C 9.210938 -25.976562 11.585938 -26.65625 14.359375 -26.65625 C 17.210938 -26.65625 19.613281 -25.976562 21.5625 -24.625 C 23.507812 -23.269531 24.953125 -21.550781 25.890625 -19.46875 C 26.835938 -17.382812 27.3125 -15.238281 27.3125 -13.03125 C 27.3125 -10.863281 26.816406 -8.734375 25.828125 -6.640625 C 24.835938 -4.546875 23.351562 -2.816406 21.375 -1.453125 C 19.40625 -0.0859375 17.03125 0.59375 14.25 0.59375 Z M 14.625 -2.125 C 16.238281 -2.125 17.550781 -2.628906 18.5625 -3.640625 C 19.582031 -4.660156 20.316406 -5.953125 20.765625 -7.515625 C 21.210938 -9.078125 21.4375 -10.703125 21.4375 -12.390625 C 21.4375 -15.910156 20.816406 -18.710938 19.578125 -20.796875 C 18.335938 -22.890625 16.5 -23.9375 14.0625 -23.9375 C 12.425781 -23.9375 11.085938 -23.414062 10.046875 -22.375 C 9.003906 -21.332031 8.257812 -20.015625 7.8125 -18.421875 C 7.363281 -16.835938 7.140625 -15.1875 7.140625 -13.46875 C 7.140625 -11.738281 7.390625 -10.003906 7.890625 -8.265625 C 8.390625 -6.523438 9.203125 -5.066406 10.328125 -3.890625 C 11.453125 -2.710938 12.882812 -2.125 14.625 -2.125 Z M 14.625 -2.125 "/></g></g></g><g fill="#ceaa5b" fill-opacity="1"><g transform="translate(202.186276, 193.109313)"><g><path d="M 1.859375 -2.453125 C 2.523438 -2.484375 3.03125 -2.566406 3.375 -2.703125 C 3.726562 -2.835938 4.003906 -3.128906 4.203125 -3.578125 C 4.398438 -4.023438 4.5 -4.726562 4.5 -5.6875 L 4.5 -19.953125 C 4.5 -21.335938 4.550781 -22.453125 4.65625 -23.296875 L 1.859375 -23.1875 L 1.859375 -26.046875 L 12.4375 -26.125 C 15.832031 -26.15625 18.453125 -25.5625 20.296875 -24.34375 C 22.148438 -23.125 23.078125 -21.148438 23.078125 -18.421875 C 23.078125 -16.710938 22.523438 -15.191406 21.421875 -13.859375 C 20.316406 -12.535156 18.6875 -11.5625 16.53125 -10.9375 L 16.53125 -10.90625 C 16.96875 -10.726562 17.421875 -10.421875 17.890625 -9.984375 C 18.367188 -9.554688 18.769531 -9.082031 19.09375 -8.5625 L 20.84375 -5.953125 C 21.6875 -4.640625 22.382812 -3.734375 22.9375 -3.234375 C 23.5 -2.742188 24.191406 -2.484375 25.015625 -2.453125 L 25.015625 0 L 18.875 0 C 18.445312 -0.300781 18.019531 -0.726562 17.59375 -1.28125 C 17.175781 -1.84375 16.695312 -2.582031 16.15625 -3.5 L 13.40625 -7.96875 C 12.78125 -8.957031 12.253906 -9.675781 11.828125 -10.125 L 9.90625 -10.125 L 9.90625 -6.140625 C 9.90625 -4.722656 9.851562 -3.59375 9.75 -2.75 C 10.539062 -2.820312 11.597656 -2.859375 12.921875 -2.859375 L 12.921875 0 L 1.859375 0 Z M 11.6875 -12.796875 C 13.71875 -12.796875 15.1875 -13.25 16.09375 -14.15625 C 17 -15.0625 17.453125 -16.484375 17.453125 -18.421875 C 17.453125 -20.484375 16.925781 -21.847656 15.875 -22.515625 C 14.820312 -23.179688 13.660156 -23.515625 12.390625 -23.515625 C 11.523438 -23.515625 10.894531 -23.328125 10.5 -22.953125 C 10.101562 -22.585938 9.90625 -21.796875 9.90625 -20.578125 L 9.90625 -12.953125 C 10.644531 -12.847656 11.238281 -12.796875 11.6875 -12.796875 Z M 11.6875 -12.796875 "/></g></g></g><g fill="#ceaa5b" fill-opacity="1"><g transform="translate(227.718295, 193.109313)"><g><path d="M 14 0.59375 C 11.363281 0.59375 9.097656 0.0078125 7.203125 -1.15625 C 5.304688 -2.320312 3.851562 -3.898438 2.84375 -5.890625 C 1.84375 -7.890625 1.34375 -10.144531 1.34375 -12.65625 C 1.34375 -15.007812 1.832031 -17.257812 2.8125 -19.40625 C 3.789062 -21.550781 5.253906 -23.296875 7.203125 -24.640625 C 9.148438 -25.984375 11.5 -26.65625 14.25 -26.65625 C 15.320312 -26.65625 16.53125 -26.492188 17.875 -26.171875 C 19.226562 -25.847656 20.378906 -25.398438 21.328125 -24.828125 L 21.359375 -24.828125 L 21.21875 -26.390625 L 24.078125 -26.390625 L 24.078125 -17.71875 L 21.65625 -17.71875 C 21.332031 -19.726562 20.550781 -21.265625 19.3125 -22.328125 C 18.070312 -23.398438 16.546875 -23.945312 14.734375 -23.96875 C 13.097656 -23.96875 11.707031 -23.476562 10.5625 -22.5 C 9.425781 -21.519531 8.570312 -20.222656 8 -18.609375 C 7.425781 -16.992188 7.140625 -15.257812 7.140625 -13.40625 C 7.140625 -10.101562 7.820312 -7.429688 9.1875 -5.390625 C 10.550781 -3.359375 12.460938 -2.34375 14.921875 -2.34375 C 15.710938 -2.34375 16.625 -2.425781 17.65625 -2.59375 C 18.6875 -2.769531 19.523438 -3.019531 20.171875 -3.34375 L 20.171875 -6.8125 C 20.171875 -8.195312 20.222656 -9.3125 20.328125 -10.15625 C 19.679688 -10.113281 19.070312 -10.09375 18.5 -10.09375 L 17.53125 -10.046875 L 17.53125 -12.921875 L 27.4375 -12.921875 L 27.4375 -10.453125 C 26.8125 -10.429688 26.320312 -10.34375 25.96875 -10.1875 C 25.625 -10.039062 25.363281 -9.738281 25.1875 -9.28125 C 25.019531 -8.820312 24.9375 -8.132812 24.9375 -7.21875 L 24.9375 -1.265625 L 24.046875 -1.265625 C 23.472656 -1.265625 22.90625 -1.203125 22.34375 -1.078125 C 21.789062 -0.953125 21.078125 -0.753906 20.203125 -0.484375 C 18.921875 -0.109375 17.84375 0.160156 16.96875 0.328125 C 16.101562 0.503906 15.113281 0.59375 14 0.59375 Z M 14 0.59375 "/></g></g></g><g fill="#ceaa5b" fill-opacity="1"><g transform="translate(255.781187, 193.109313)"><g><path d="M 0.15625 -2.5625 C 0.789062 -2.5625 1.328125 -2.75 1.765625 -3.125 C 2.203125 -3.5 2.539062 -3.953125 2.78125 -4.484375 C 3.03125 -5.015625 3.34375 -5.789062 3.71875 -6.8125 L 10.984375 -26.71875 L 13.578125 -26.71875 L 21.515625 -6.4375 C 21.710938 -5.9375 21.921875 -5.320312 22.140625 -4.59375 C 22.367188 -3.863281 22.503906 -3.25 22.546875 -2.75 C 23.367188 -2.820312 24.09375 -2.859375 24.71875 -2.859375 L 24.71875 0 L 14.703125 0 L 14.703125 -2.453125 C 15.890625 -2.453125 16.484375 -2.945312 16.484375 -3.9375 C 16.484375 -4.4375 16.347656 -5.035156 16.078125 -5.734375 L 15.328125 -7.78125 L 7.25 -7.625 L 6.65625 -5.875 C 6.582031 -5.675781 6.414062 -5.226562 6.15625 -4.53125 C 5.894531 -3.84375 5.664062 -3.285156 5.46875 -2.859375 C 6.257812 -2.941406 7.140625 -2.984375 8.109375 -2.984375 L 8.109375 0 L 0.15625 0 Z M 14.40625 -10.421875 L 12.6875 -15.078125 C 11.96875 -17.109375 11.5 -18.804688 11.28125 -20.171875 L 11.234375 -20.171875 C 10.835938 -18.390625 10.378906 -16.753906 9.859375 -15.265625 L 8.1875 -10.421875 Z M 14.40625 -10.421875 "/></g></g></g><g fill="#ceaa5b" fill-opacity="1"><g transform="translate(280.643269, 193.109313)"><g><path d="M 9.75 -14.84375 C 9.132812 -15.644531 8.453125 -16.578125 7.703125 -17.640625 L 7.671875 -17.640625 L 7.734375 -6.109375 C 7.734375 -4.710938 7.6875 -3.59375 7.59375 -2.75 C 8.382812 -2.820312 9.316406 -2.859375 10.390625 -2.859375 L 10.390625 0 L 1.890625 0 L 1.890625 -2.453125 C 2.566406 -2.484375 3.078125 -2.566406 3.421875 -2.703125 C 3.765625 -2.835938 4.035156 -3.128906 4.234375 -3.578125 C 4.441406 -4.023438 4.546875 -4.726562 4.546875 -5.6875 L 4.46875 -19.953125 C 4.46875 -21.609375 4.515625 -22.722656 4.609375 -23.296875 L 1.78125 -23.1875 L 1.78125 -26.046875 L 7.625 -26.046875 L 19.015625 -11.6875 C 20.054688 -10.320312 20.925781 -9.144531 21.625 -8.15625 L 21.65625 -8.15625 L 21.65625 -19.953125 C 21.65625 -21.566406 21.691406 -22.679688 21.765625 -23.296875 L 18.984375 -23.1875 L 18.984375 -26.046875 L 27.46875 -26.046875 L 27.46875 -23.59375 C 26.800781 -23.570312 26.289062 -23.492188 25.9375 -23.359375 C 25.59375 -23.222656 25.320312 -22.929688 25.125 -22.484375 C 24.925781 -22.035156 24.828125 -21.328125 24.828125 -20.359375 L 24.828125 0.375 L 21.65625 0.375 Z M 9.75 -14.84375 "/></g></g></g><g fill="#ceaa5b" fill-opacity="1"><g transform="translate(179.877438, 218.511151)"><g><path d="M 2.84375 0.3125 C 2.050781 0.3125 1.378906 0.113281 0.828125 -0.28125 C 0.285156 -0.6875 0.015625 -1.191406 0.015625 -1.796875 C 0.015625 -2.253906 0.144531 -2.640625 0.40625 -2.953125 C 0.675781 -3.273438 1.039062 -3.4375 1.5 -3.4375 C 1.914062 -3.4375 2.234375 -3.3125 2.453125 -3.0625 C 2.671875 -2.8125 2.785156 -2.507812 2.796875 -2.15625 C 2.804688 -1.9375 2.75 -1.691406 2.625 -1.421875 C 2.675781 -1.304688 2.765625 -1.222656 2.890625 -1.171875 C 3.015625 -1.128906 3.128906 -1.109375 3.234375 -1.109375 C 3.804688 -1.109375 4.09375 -1.625 4.09375 -2.65625 L 4.09375 -10.5625 C 4.09375 -11.445312 4.125 -12.039062 4.1875 -12.34375 L 2.703125 -12.28125 L 2.703125 -13.796875 L 8.359375 -13.796875 L 8.359375 -12.5 C 8.003906 -12.488281 7.734375 -12.445312 7.546875 -12.375 C 7.367188 -12.300781 7.222656 -12.144531 7.109375 -11.90625 C 7.003906 -11.675781 6.953125 -11.300781 6.953125 -10.78125 L 6.953125 -5.015625 C 6.953125 -3.160156 6.609375 -1.804688 5.921875 -0.953125 C 5.234375 -0.109375 4.207031 0.3125 2.84375 0.3125 Z M 2.84375 0.3125 "/></g></g></g><g fill="#ceaa5b" fill-opacity="1"><g transform="translate(199.380545, 218.511151)"><g><path d="M 7.546875 0.3125 C 5.972656 0.3125 4.671875 -0.0351562 3.640625 -0.734375 C 2.617188 -1.429688 1.867188 -2.320312 1.390625 -3.40625 C 0.921875 -4.5 0.6875 -5.664062 0.6875 -6.90625 C 0.6875 -8.070312 0.945312 -9.207031 1.46875 -10.3125 C 2 -11.414062 2.785156 -12.328125 3.828125 -13.046875 C 4.878906 -13.765625 6.140625 -14.125 7.609375 -14.125 C 9.117188 -14.125 10.390625 -13.765625 11.421875 -13.046875 C 12.453125 -12.328125 13.21875 -11.414062 13.71875 -10.3125 C 14.21875 -9.207031 14.46875 -8.070312 14.46875 -6.90625 C 14.46875 -5.757812 14.203125 -4.628906 13.671875 -3.515625 C 13.148438 -2.410156 12.367188 -1.492188 11.328125 -0.765625 C 10.285156 -0.046875 9.023438 0.3125 7.546875 0.3125 Z M 7.75 -1.125 C 8.601562 -1.125 9.296875 -1.390625 9.828125 -1.921875 C 10.367188 -2.460938 10.757812 -3.144531 11 -3.96875 C 11.238281 -4.800781 11.359375 -5.664062 11.359375 -6.5625 C 11.359375 -8.425781 11.03125 -9.910156 10.375 -11.015625 C 9.71875 -12.117188 8.742188 -12.671875 7.453125 -12.671875 C 6.585938 -12.671875 5.878906 -12.394531 5.328125 -11.84375 C 4.773438 -11.289062 4.378906 -10.59375 4.140625 -9.75 C 3.898438 -8.914062 3.78125 -8.046875 3.78125 -7.140625 C 3.78125 -6.222656 3.910156 -5.300781 4.171875 -4.375 C 4.441406 -3.457031 4.875 -2.6875 5.46875 -2.0625 C 6.070312 -1.4375 6.832031 -1.125 7.75 -1.125 Z M 7.75 -1.125 "/></g></g></g><g fill="#ceaa5b" fill-opacity="1"><g transform="translate(225.154151, 218.511151)"><g><path d="M 0.984375 -1.296875 C 1.335938 -1.316406 1.609375 -1.359375 1.796875 -1.421875 C 1.984375 -1.492188 2.128906 -1.648438 2.234375 -1.890625 C 2.335938 -2.128906 2.390625 -2.503906 2.390625 -3.015625 L 2.390625 -10.5625 C 2.390625 -11.300781 2.414062 -11.894531 2.46875 -12.34375 L 0.984375 -12.28125 L 0.984375 -13.796875 L 6.640625 -13.796875 L 6.640625 -12.5 C 6.285156 -12.488281 6.015625 -12.445312 5.828125 -12.375 C 5.648438 -12.300781 5.507812 -12.144531 5.40625 -11.90625 C 5.300781 -11.675781 5.25 -11.300781 5.25 -10.78125 L 5.25 -7.703125 L 10.671875 -7.703125 L 10.671875 -10.5625 C 10.671875 -11.445312 10.695312 -12.039062 10.75 -12.34375 L 9.265625 -12.28125 L 9.265625 -13.796875 L 14.921875 -13.796875 L 14.921875 -12.5 C 14.566406 -12.488281 14.296875 -12.445312 14.109375 -12.375 C 13.929688 -12.300781 13.789062 -12.144531 13.6875 -11.90625 C 13.582031 -11.675781 13.53125 -11.300781 13.53125 -10.78125 L 13.53125 -3.234375 C 13.53125 -2.492188 13.503906 -1.898438 13.453125 -1.453125 C 13.867188 -1.492188 14.359375 -1.515625 14.921875 -1.515625 L 14.921875 0 L 9.265625 0 L 9.265625 -1.296875 C 9.617188 -1.316406 9.890625 -1.359375 10.078125 -1.421875 C 10.265625 -1.492188 10.410156 -1.648438 10.515625 -1.890625 C 10.617188 -2.128906 10.671875 -2.503906 10.671875 -3.015625 L 10.671875 -6.21875 L 5.25 -6.15625 L 5.25 -3.234375 C 5.25 -2.492188 5.222656 -1.898438 5.171875 -1.453125 C 5.585938 -1.492188 6.078125 -1.515625 6.640625 -1.515625 L 6.640625 0 L 0.984375 0 Z M 0.984375 -1.296875 "/></g></g></g><g fill="#ceaa5b" fill-opacity="1"><g transform="translate(251.677067, 218.511151)"><g><path d="M 5.171875 -7.875 C 4.835938 -8.289062 4.472656 -8.78125 4.078125 -9.34375 L 4.0625 -9.34375 L 4.09375 -3.234375 C 4.09375 -2.492188 4.066406 -1.898438 4.015625 -1.453125 C 4.441406 -1.492188 4.9375 -1.515625 5.5 -1.515625 L 5.5 0 L 1 0 L 1 -1.296875 C 1.351562 -1.316406 1.625 -1.359375 1.8125 -1.421875 C 2 -1.492188 2.144531 -1.648438 2.25 -1.890625 C 2.351562 -2.128906 2.40625 -2.503906 2.40625 -3.015625 L 2.359375 -10.5625 C 2.359375 -11.445312 2.382812 -12.039062 2.4375 -12.34375 L 0.953125 -12.28125 L 0.953125 -13.796875 L 4.046875 -13.796875 L 10.078125 -6.1875 C 10.628906 -5.46875 11.085938 -4.84375 11.453125 -4.3125 L 11.46875 -4.3125 L 11.46875 -10.5625 C 11.46875 -11.414062 11.488281 -12.007812 11.53125 -12.34375 L 10.0625 -12.28125 L 10.0625 -13.796875 L 14.546875 -13.796875 L 14.546875 -12.5 C 14.191406 -12.488281 13.921875 -12.445312 13.734375 -12.375 C 13.554688 -12.300781 13.414062 -12.144531 13.3125 -11.90625 C 13.207031 -11.675781 13.15625 -11.300781 13.15625 -10.78125 L 13.15625 0.203125 L 11.46875 0.203125 Z M 5.171875 -7.875 "/></g></g></g></svg>